<svg xmlns="http://www.w3.org/2000/svg" width="800" height="600" viewBox="0 0 800 600">
  <rect width="100%" height="100%" fill="#000000" />
<line x1="12.9" y1="0" x2="12.9" y2="600.0" stroke="#ffffff" stroke-width="0.8" />
<line x1="54.3" y1="0" x2="54.3" y2="600.0" stroke="#ffffff" stroke-width="0.8" />
<line x1="95.6" y1="0" x2="95.6" y2="600.0" stroke="#ffffff" stroke-width="0.8" />
<line x1="136.9" y1="0" x2="136.9" y2="600.0" stroke="#ffffff" stroke-width="0.8" />
<line x1="178.2" y1="0" x2="178.2" y2="600.0" stroke="#ffffff" stroke-width="0.8" />
<line x1="219.5" y1="0" x2="219.5" y2="600.0" stroke="#ffffff" stroke-width="0.8" />
<line x1="260.8" y1="0" x2="260.8" y2="600.0" stroke="#ffffff" stroke-width="0.8" />
<line x1="302.1" y1="0" x2="302.1" y2="600.0" stroke="#ffffff" stroke-width="0.8" />
<line x1="343.4" y1="0" x2="343.4" y2="600.0" stroke="#ffffff" stroke-width="0.8" />
<line x1="384.7" y1="0" x2="384.7" y2="600.0" stroke="#ffffff" stroke-width="0.8" />
<line x1="426.0" y1="0" x2="426.0" y2="600.0" stroke="#ffffff" stroke-width="0.8" />
<line x1="467.3" y1="0" x2="467.3" y2="600.0" stroke="#ffffff" stroke-width="0.8" />
<line x1="508.6" y1="0" x2="508.6" y2="600.0" stroke="#ffffff" stroke-width="0.8" />
<line x1="549.9" y1="0" x2="549.9" y2="600.0" stroke="#ffffff" stroke-width="0.8" />
<line x1="591.3" y1="0" x2="591.3" y2="600.0" stroke="#ffffff" stroke-width="0.8" />
<line x1="632.6" y1="0" x2="632.6" y2="600.0" stroke="#ffffff" stroke-width="0.8" />
<line x1="673.9" y1="0" x2="673.9" y2="600.0" stroke="#ffffff" stroke-width="0.8" />
<line x1="715.2" y1="0" x2="715.2" y2="600.0" stroke="#ffffff" stroke-width="0.8" />
<line x1="756.5" y1="0" x2="756.5" y2="600.0" stroke="#ffffff" stroke-width="0.8" />
<line x1="797.8" y1="0" x2="797.8" y2="600.0" stroke="#ffffff" stroke-width="0.8" />
<line x1="0" y1="2.2" x2="800.0" y2="2.2" stroke="#ffffff" stroke-width="0.8" />
<line x1="0" y1="43.5" x2="800.0" y2="43.5" stroke="#ffffff" stroke-width="0.8" />
<line x1="0" y1="84.8" x2="800.0" y2="84.8" stroke="#ffffff" stroke-width="0.8" />
<line x1="0" y1="126.1" x2="800.0" y2="126.1" stroke="#ffffff" stroke-width="0.8" />
<line x1="0" y1="167.4" x2="800.0" y2="167.4" stroke="#ffffff" stroke-width="0.8" />
<line x1="0" y1="208.7" x2="800.0" y2="208.7" stroke="#ffffff" stroke-width="0.8" />
<line x1="0" y1="250.0" x2="800.0" y2="250.0" stroke="#ffffff" stroke-width="0.8" />
<line x1="0" y1="291.3" x2="800.0" y2="291.3" stroke="#ffffff" stroke-width="0.8" />
<line x1="0" y1="332.6" x2="800.0" y2="332.6" stroke="#ffffff" stroke-width="0.8" />
<line x1="0" y1="373.9" x2="800.0" y2="373.9" stroke="#ffffff" stroke-width="0.8" />
<line x1="0" y1="415.2" x2="800.0" y2="415.2" stroke="#ffffff" stroke-width="0.8" />
<line x1="0" y1="456.6" x2="800.0" y2="456.6" stroke="#ffffff" stroke-width="0.8" />
<line x1="0" y1="497.9" x2="800.0" y2="497.9" stroke="#ffffff" stroke-width="0.8" />
<line x1="0" y1="539.2" x2="800.0" y2="539.2" stroke="#ffffff" stroke-width="0.8" />
<line x1="0" y1="580.5" x2="800.0" y2="580.5" stroke="#ffffff" stroke-width="0.8" />
<line x1="260.8" y1="0" x2="260.8" y2="600.0" stroke="#94a3b8" stroke-width="1.2" />
<line x1="0" y1="497.9" x2="800.0" y2="497.9" stroke="#94a3b8" stroke-width="1.2" />
  <!-- F1 (point) -->
  <circle cx="343.408" cy="497.866" r="4.0" stroke="#916df7" fill="#2563eb" opacity="1.0" />
  <!-- F2 (point) -->
  <circle cx="289.707" cy="497.866" r="4.0" stroke="#916df7" fill="#2563eb" opacity="1.0" />
  <!-- Focal_axis (segment) -->
  <line x1="343.408" y1="497.866" x2="289.707" y2="497.866" stroke="#916df7" fill="none" stroke-width="1.8" opacity="1.0" />
  <!-- _derived_2848517290512 (locus) -->
  <path d="M 266.575,497.040 L 267.401,497.040 L 266.575,496.213 L 267.401,496.213 L 266.575,495.387 L 267.401,495.387 L 266.575,494.561 L 267.401,494.561 L 266.575,493.735 L 267.401,493.735 L 267.401,492.909 L 267.401,492.083 L 267.401,491.256 L 268.227,491.256 L 267.401,490.430 L 268.227,490.430 L 267.401,489.604 L 268.227,489.604 L 268.227,488.778 L 268.227,487.952 L 269.053,487.952 L 268.227,487.126 L 269.053,487.126 L 268.227,486.299 L 269.053,486.299 L 269.053,485.473 L 269.880,485.473 L 269.053,484.647 L 269.880,484.647 L 269.880,483.821 L 269.880,482.995 L 270.706,482.995 L 269.880,482.169 L 270.706,482.169 L 270.706,481.343 L 271.532,481.343 L 270.706,480.516 L 271.532,480.516 L 271.532,479.690 L 272.358,479.690 L 272.358,478.864 L 273.184,478.864 L 272.358,478.038 L 273.184,478.038 L 273.184,477.212 L 274.010,477.212 L 273.184,476.386 L 274.010,476.386 L 274.836,476.386 L 274.010,475.559 L 274.836,475.559 L 275.663,475.559 L 274.836,474.733 L 275.663,474.733 L 275.663,473.907 L 276.489,473.907 L 276.489,473.081 L 277.315,473.081 L 276.489,472.255 L 277.315,472.255 L 278.141,472.255 L 277.315,471.429 L 278.141,471.429 L 278.967,471.429 L 278.141,470.602 L 278.967,470.602 L 279.793,470.602 L 278.967,469.776 L 279.793,469.776 L 280.620,469.776 L 279.793,468.950 L 280.620,468.950 L 281.446,468.950 L 280.620,468.124 L 281.446,468.124 L 282.272,468.124 L 283.098,468.124 L 282.272,467.298 L 283.098,467.298 L 283.924,467.298 L 283.098,466.472 L 283.924,466.472 L 284.750,466.472 L 283.924,465.645 L 284.750,465.645 L 285.577,465.645 L 285.577,464.819 L 286.403,465.645 L 286.403,464.819 L 286.403,463.993 L 287.229,464.819 L 287.229,463.993 L 288.055,463.993 L 288.055,463.167 L 288.881,463.993 L 288.881,463.167 L 289.707,463.167 L 289.707,462.341 L 290.534,463.167 L 290.534,462.341 L 290.534,461.515 L 291.360,462.341 L 291.360,461.515 L 292.186,462.341 L 292.186,461.515 L 292.186,460.688 L 293.012,461.515 L 293.012,460.688 L 293.838,461.515 L 293.838,460.688 L 294.664,460.688 L 294.664,459.862 L 295.491,460.688 L 295.491,459.862 L 296.317,460.688 L 296.317,459.862 L 296.317,459.036 L 297.143,459.862 L 297.143,459.036 L 297.969,459.862 L 297.969,459.036 L 298.795,459.862 L 298.795,459.036 L 298.795,458.210 L 299.621,459.036 L 299.621,458.210 L 300.448,459.036 L 300.448,458.210 L 301.274,459.036 L 301.274,458.210 L 301.274,457.384 L 302.100,458.210 L 302.100,457.384 L 302.926,458.210 L 302.926,457.384 L 303.752,458.210 L 303.752,457.384 L 304.578,458.210 L 304.578,457.384 L 304.578,456.558 L 305.404,457.384 L 305.404,456.558 L 306.231,457.384 L 306.231,456.558 L 307.057,457.384 L 307.057,456.558 L 307.883,457.384 L 307.883,456.558 L 308.709,457.384 L 308.709,456.558 L 309.535,457.384 L 309.535,456.558 L 310.361,457.384 L 310.361,456.558 L 310.361,455.731 L 311.188,456.558 L 311.188,455.731 L 312.014,456.558 L 312.014,455.731 L 312.840,456.558 L 312.840,455.731 L 313.666,456.558 L 313.666,455.731 L 314.492,456.558 L 314.492,455.731 L 315.318,456.558 L 315.318,455.731 L 316.145,456.558 L 316.145,455.731 L 316.971,455.731 L 316.971,456.558 L 317.797,455.731 L 317.797,456.558 L 318.623,455.731 L 318.623,456.558 L 319.449,455.731 L 319.449,456.558 L 320.275,455.731 L 320.275,456.558 L 321.102,455.731 L 321.102,456.558 L 321.928,455.731 L 321.928,456.558 L 322.754,455.731 L 322.754,456.558 L 322.754,457.384 L 323.580,456.558 L 323.580,457.384 L 324.406,456.558 L 324.406,457.384 L 325.232,456.558 L 325.232,457.384 L 326.059,456.558 L 326.059,457.384 L 326.885,456.558 L 326.885,457.384 L 327.711,456.558 L 327.711,457.384 L 328.537,456.558 L 328.537,457.384 L 328.537,458.210 L 329.363,457.384 L 329.363,458.210 L 330.189,457.384 L 330.189,458.210 L 331.015,457.384 L 331.015,458.210 L 331.842,457.384 L 331.842,458.210 L 331.842,459.036 L 332.668,458.210 L 332.668,459.036 L 333.494,458.210 L 333.494,459.036 L 334.320,458.210 L 334.320,459.036 L 334.320,459.862 L 335.146,459.036 L 335.146,459.862 L 335.972,459.036 L 335.972,459.862 L 336.799,459.036 L 336.799,459.862 L 336.799,460.688 L 337.625,459.862 L 337.625,460.688 L 338.451,459.862 L 338.451,460.688 L 339.277,460.688 L 339.277,461.515 L 340.103,460.688 L 340.103,461.515 L 340.929,460.688 L 340.929,461.515 L 340.929,462.341 L 341.756,461.515 L 341.756,462.341 L 342.582,461.515 L 342.582,462.341 L 342.582,463.167 L 343.408,462.341 L 343.408,463.167 L 344.234,463.167 L 344.234,463.993 L 345.060,463.167 L 345.060,463.993 L 345.886,463.993 L 345.886,464.819 L 346.713,463.993 L 346.713,464.819 L 346.713,465.645 L 347.539,464.819 L 347.539,465.645 L 348.365,465.645 L 349.191,465.645 L 348.365,466.472 L 349.191,466.472 L 350.017,466.472 L 349.191,467.298 L 350.017,467.298 L 350.843,467.298 L 350.017,468.124 L 350.843,468.124 L 351.670,468.124 L 352.496,468.124 L 351.670,468.950 L 352.496,468.950 L 353.322,468.950 L 352.496,469.776 L 353.322,469.776 L 354.148,469.776 L 353.322,470.602 L 354.148,470.602 L 354.974,470.602 L 354.148,471.429 L 354.974,471.429 L 355.800,471.429 L 354.974,472.255 L 355.800,472.255 L 356.627,472.255 L 355.800,473.081 L 356.627,473.081 L 356.627,473.907 L 357.453,473.907 L 357.453,474.733 L 358.279,474.733 L 357.453,475.559 L 358.279,475.559 L 359.105,475.559 L 358.279,476.386 L 359.105,476.386 L 359.931,476.386 L 359.105,477.212 L 359.931,477.212 L 359.931,478.038 L 360.757,478.038 L 359.931,478.864 L 360.757,478.864 L 360.757,479.690 L 361.583,479.690 L 361.583,480.516 L 362.410,480.516 L 361.583,481.343 L 362.410,481.343 L 362.410,482.169 L 363.236,482.169 L 362.410,482.995 L 363.236,482.995 L 363.236,483.821 L 363.236,484.647 L 364.062,484.647 L 363.236,485.473 L 364.062,485.473 L 364.062,486.299 L 364.888,486.299 L 364.062,487.126 L 364.888,487.126 L 364.062,487.952 L 364.888,487.952 L 364.888,488.778 L 364.888,489.604 L 365.714,489.604 L 364.888,490.430 L 365.714,490.430 L 364.888,491.256 L 365.714,491.256 L 365.714,492.083 L 365.714,492.909 L 365.714,493.735 L 366.540,493.735 L 365.714,494.561 L 366.540,494.561 L 365.714,495.387 L 366.540,495.387 L 365.714,496.213 L 366.540,496.213 L 365.714,497.040 L 366.540,497.040 L 365.714,497.866 L 366.540,497.866 L 366.540,498.692 L 365.714,498.692 L 366.540,499.518 L 365.714,499.518 L 366.540,500.344 L 365.714,500.344 L 366.540,501.170 L 365.714,501.170 L 366.540,501.997 L 365.714,501.997 L 365.714,502.823 L 365.714,503.649 L 365.714,504.475 L 364.888,504.475 L 365.714,505.301 L 364.888,505.301 L 365.714,506.127 L 364.888,506.127 L 364.888,506.954 L 364.888,507.780 L 364.062,507.780 L 364.888,508.606 L 364.062,508.606 L 364.888,509.432 L 364.062,509.432 L 364.062,510.258 L 363.236,510.258 L 364.062,511.084 L 363.236,511.084 L 363.236,511.910 L 363.236,512.737 L 362.410,512.737 L 363.236,513.563 L 362.410,513.563 L 362.410,514.389 L 361.583,514.389 L 362.410,515.215 L 361.583,515.215 L 361.583,516.041 L 360.757,516.041 L 360.757,516.867 L 359.931,516.867 L 360.757,517.694 L 359.931,517.694 L 359.931,518.520 L 359.105,518.520 L 359.931,519.346 L 359.105,519.346 L 358.279,519.346 L 359.105,520.172 L 358.279,520.172 L 357.453,520.172 L 358.279,520.998 L 357.453,520.998 L 357.453,521.824 L 356.627,521.824 L 356.627,522.651 L 355.800,522.651 L 356.627,523.477 L 355.800,523.477 L 354.974,523.477 L 355.800,524.303 L 354.974,524.303 L 354.148,524.303 L 354.974,525.129 L 354.148,525.129 L 353.322,525.129 L 354.148,525.955 L 353.322,525.955 L 352.496,525.955 L 353.322,526.781 L 352.496,526.781 L 351.670,526.781 L 352.496,527.608 L 351.670,527.608 L 350.843,527.608 L 350.017,527.608 L 350.843,528.434 L 350.017,528.434 L 349.191,528.434 L 350.017,529.260 L 349.191,529.260 L 348.365,529.260 L 349.191,530.086 L 348.365,530.086 L 347.539,530.086 L 347.539,530.912 L 346.713,530.086 L 346.713,530.912 L 346.713,531.738 L 345.886,530.912 L 345.886,531.738 L 345.060,531.738 L 345.060,532.565 L 344.234,531.738 L 344.234,532.565 L 343.408,532.565 L 343.408,533.391 L 342.582,532.565 L 342.582,533.391 L 342.582,534.217 L 341.756,533.391 L 341.756,534.217 L 340.929,533.391 L 340.929,534.217 L 340.929,535.043 L 340.103,534.217 L 340.103,535.043 L 339.277,534.217 L 339.277,535.043 L 338.451,535.043 L 338.451,535.869 L 337.625,535.043 L 337.625,535.869 L 336.799,535.043 L 336.799,535.869 L 336.799,536.695 L 335.972,535.869 L 335.972,536.695 L 335.146,535.869 L 335.146,536.695 L 334.320,535.869 L 334.320,536.695 L 334.320,537.522 L 333.494,536.695 L 333.494,537.522 L 332.668,536.695 L 332.668,537.522 L 331.842,536.695 L 331.842,537.522 L 331.842,538.348 L 331.015,537.522 L 331.015,538.348 L 330.189,537.522 L 330.189,538.348 L 329.363,537.522 L 329.363,538.348 L 328.537,537.522 L 328.537,538.348 L 328.537,539.174 L 327.711,538.348 L 327.711,539.174 L 326.885,538.348 L 326.885,539.174 L 326.059,538.348 L 326.059,539.174 L 325.232,538.348 L 325.232,539.174 L 324.406,538.348 L 324.406,539.174 L 323.580,538.348 L 323.580,539.174 L 322.754,538.348 L 322.754,539.174 L 322.754,540.000 L 321.928,539.174 L 321.928,540.000 L 321.102,539.174 L 321.102,540.000 L 320.275,539.174 L 320.275,540.000 L 319.449,539.174 L 319.449,540.000 L 318.623,539.174 L 318.623,540.000 L 317.797,539.174 L 317.797,540.000 L 316.971,539.174 L 316.971,540.000 L 316.145,540.000 L 316.145,539.174 L 315.318,540.000 L 315.318,539.174 L 314.492,540.000 L 314.492,539.174 L 313.666,540.000 L 313.666,539.174 L 312.840,540.000 L 312.840,539.174 L 312.014,540.000 L 312.014,539.174 L 311.188,540.000 L 311.188,539.174 L 310.361,540.000 L 310.361,539.174 L 310.361,538.348 L 309.535,539.174 L 309.535,538.348 L 308.709,539.174 L 308.709,538.348 L 307.883,539.174 L 307.883,538.348 L 307.057,539.174 L 307.057,538.348 L 306.231,539.174 L 306.231,538.348 L 305.404,539.174 L 305.404,538.348 L 304.578,539.174 L 304.578,538.348 L 304.578,537.522 L 303.752,538.348 L 303.752,537.522 L 302.926,538.348 L 302.926,537.522 L 302.100,538.348 L 302.100,537.522 L 301.274,538.348 L 301.274,537.522 L 301.274,536.695 L 300.448,537.522 L 300.448,536.695 L 299.621,537.522 L 299.621,536.695 L 298.795,537.522 L 298.795,536.695 L 298.795,535.869 L 297.969,536.695 L 297.969,535.869 L 297.143,536.695 L 297.143,535.869 L 296.317,536.695 L 296.317,535.869 L 296.317,535.043 L 295.491,535.869 L 295.491,535.043 L 294.664,535.869 L 294.664,535.043 L 293.838,535.043 L 293.838,534.217 L 293.012,535.043 L 293.012,534.217 L 292.186,535.043 L 292.186,534.217 L 292.186,533.391 L 291.360,534.217 L 291.360,533.391 L 290.534,534.217 L 290.534,533.391 L 290.534,532.565 L 289.707,533.391 L 289.707,532.565 L 288.881,532.565 L 288.881,531.738 L 288.055,532.565 L 288.055,531.738 L 287.229,531.738 L 287.229,530.912 L 286.403,531.738 L 286.403,530.912 L 286.403,530.086 L 285.577,530.912 L 285.577,530.086 L 284.750,530.086 L 283.924,530.086 L 284.750,529.260 L 283.924,529.260 L 283.098,529.260 L 283.924,528.434 L 283.098,528.434 L 282.272,528.434 L 283.098,527.608 L 282.272,527.608 L 281.446,527.608 L 280.620,527.608 L 281.446,526.781 L 280.620,526.781 L 279.793,526.781 L 280.620,525.955 L 279.793,525.955 L 278.967,525.955 L 279.793,525.129 L 278.967,525.129 L 278.141,525.129 L 278.967,524.303 L 278.141,524.303 L 277.315,524.303 L 278.141,523.477 L 277.315,523.477 L 276.489,523.477 L 277.315,522.651 L 276.489,522.651 L 276.489,521.824 L 275.663,521.824 L 275.663,520.998 L 274.836,520.998 L 275.663,520.172 L 274.836,520.172 L 274.010,520.172 L 274.836,519.346 L 274.010,519.346 L 273.184,519.346 L 274.010,518.520 L 273.184,518.520 L 273.184,517.694 L 272.358,517.694 L 273.184,516.867 L 272.358,516.867 L 272.358,516.041 L 271.532,516.041 L 271.532,515.215 L 270.706,515.215 L 271.532,514.389 L 270.706,514.389 L 270.706,513.563 L 269.880,513.563 L 270.706,512.737 L 269.880,512.737 L 269.880,511.910 L 269.880,511.084 L 269.053,511.084 L 269.880,510.258 L 269.053,510.258 L 269.053,509.432 L 268.227,509.432 L 269.053,508.606 L 268.227,508.606 L 269.053,507.780 L 268.227,507.780 L 268.227,506.954 L 268.227,506.127 L 267.401,506.127 L 268.227,505.301 L 267.401,505.301 L 268.227,504.475 L 267.401,504.475 L 267.401,503.649 L 267.401,502.823 L 267.401,501.997 L 266.575,501.997 L 267.401,501.170 L 266.575,501.170 L 267.401,500.344 L 266.575,500.344 L 267.401,499.518 L 266.575,499.518 L 267.401,498.692 L 266.575,498.692 L 266.575,497.866 L 267.401,497.866 Z" stroke="#3bf69a" fill="none" stroke-width="1.500" opacity="0.95" stroke-linecap="round" stroke-linejoin="round" />
  <!-- FC (point) -->
  <circle cx="467.332" cy="126.093" r="4.0" stroke="#916df7" fill="#2563eb" opacity="1.0" />
  <!-- Ref_circle (circle) -->
  <circle cx="467.332" cy="126.093" r="66.093" stroke="#916df7" fill="none" stroke-width="1.8" opacity="1.0" />
  <text x="353.408" y="487.866" font="13px 'Inter', 'Segoe UI', sans-serif" fill="#3b82f6" font-size="13" font-family="Inter, Segoe UI, sans-serif">Focus F1</text>
  <text x="299.707" y="487.866" font="13px 'Inter', 'Segoe UI', sans-serif" fill="#3b82f6" font-size="13" font-family="Inter, Segoe UI, sans-serif">Focus F2</text>
  <text x="326.558" y="487.866" font="13px 'Inter', 'Segoe UI', sans-serif" fill="#3b82f6" font-size="13" font-family="Inter, Segoe UI, sans-serif">Focal axis</text>
  <text x="477.332" y="116.093" font="13px 'Inter', 'Segoe UI', sans-serif" fill="#3b82f6" font-size="13" font-family="Inter, Segoe UI, sans-serif">Circle locus (F1=F2)</text>
  <text x="475.332" y="118.093" font="13px 'Inter', 'Segoe UI', sans-serif" fill="#3b82f6" font-size="13" font-family="Inter, Segoe UI, sans-serif">FC</text>
  <text x="60.000" y="30.000" font="12px 'Inter', 'Segoe UI', sans-serif" fill="#475569" font-size="12" font-family="Inter, Segoe UI, sans-serif" font-style="italic">Locus of P: dist(P,F1)+dist(P,F2)=const traces an ellipse</text>
</svg>