<svg xmlns="http://www.w3.org/2000/svg" width="800" height="600" viewBox="0 0 800 600">
  <rect width="100%" height="100%" fill="#000000" />
  <g id="shape_O">
    <g visibility="hidden"><animate attributeName="visibility" values="visible;hidden" keyTimes="0;1" begin="0.000s" dur="0.083s" repeatCount="indefinite" /><circle cx="160.000" cy="540.000" r="4.0" stroke="#916df7" fill="#2563eb" opacity="1.0" /></g>
    <g visibility="hidden"><animate attributeName="visibility" values="visible;hidden" keyTimes="0;1" begin="0.083s" dur="0.083s" repeatCount="indefinite" /><circle cx="160.000" cy="540.000" r="4.0" stroke="#916df7" fill="#2563eb" opacity="1.0" /></g>
    <g visibility="hidden"><animate attributeName="visibility" values="visible;hidden" keyTimes="0;1" begin="0.167s" dur="0.083s" repeatCount="indefinite" /><circle cx="160.000" cy="540.000" r="4.0" stroke="#916df7" fill="#2563eb" opacity="1.0" /></g>
    <g visibility="hidden"><animate attributeName="visibility" values="visible;hidden" keyTimes="0;1" begin="0.250s" dur="0.083s" repeatCount="indefinite" /><circle cx="160.000" cy="540.000" r="4.0" stroke="#916df7" fill="#2563eb" opacity="1.0" /></g>
    <g visibility="hidden"><animate attributeName="visibility" values="visible;hidden" keyTimes="0;1" begin="0.333s" dur="0.083s" repeatCount="indefinite" /><circle cx="160.000" cy="540.000" r="4.0" stroke="#916df7" fill="#2563eb" opacity="1.0" /></g>
    <g visibility="hidden"><animate attributeName="visibility" values="visible;hidden" keyTimes="0;1" begin="0.417s" dur="0.083s" repeatCount="indefinite" /><circle cx="160.000" cy="540.000" r="4.0" stroke="#916df7" fill="#2563eb" opacity="1.0" /></g>
    <g visibility="hidden"><animate attributeName="visibility" values="visible;hidden" keyTimes="0;1" begin="0.500s" dur="0.083s" repeatCount="indefinite" /><circle cx="160.000" cy="540.000" r="4.0" stroke="#916df7" fill="#2563eb" opacity="1.0" /></g>
    <g visibility="hidden"><animate attributeName="visibility" values="visible;hidden" keyTimes="0;1" begin="0.583s" dur="0.083s" repeatCount="indefinite" /><circle cx="160.000" cy="540.000" r="4.0" stroke="#916df7" fill="#2563eb" opacity="1.0" /></g>
    <g visibility="hidden"><animate attributeName="visibility" values="visible;hidden" keyTimes="0;1" begin="0.667s" dur="0.083s" repeatCount="indefinite" /><circle cx="160.000" cy="540.000" r="4.0" stroke="#916df7" fill="#2563eb" opacity="1.0" /></g>
    <g visibility="hidden"><animate attributeName="visibility" values="visible;hidden" keyTimes="0;1" begin="0.750s" dur="0.083s" repeatCount="indefinite" /><circle cx="160.000" cy="540.000" r="4.0" stroke="#916df7" fill="#2563eb" opacity="1.0" /></g>
  </g>
  <g id="shape_P">
    <g visibility="hidden"><animate attributeName="visibility" values="visible;hidden" keyTimes="0;1" begin="0.000s" dur="0.083s" repeatCount="indefinite" /><polygon points="192.000,492.000 178.144,516.000 205.856,516.000" stroke="#916df7" fill="none" stroke-width="1.8" opacity="1.0" /></g>
    <g visibility="hidden"><animate attributeName="visibility" values="visible;hidden" keyTimes="0;1" begin="0.083s" dur="0.083s" repeatCount="indefinite" /><polygon points="224.000,444.000 196.287,460.000 196.287,492.000 224.000,508.000 251.713,492.000 251.713,460.000" stroke="#916df7" fill="none" stroke-width="1.8" opacity="1.0" /></g>
    <g visibility="hidden"><animate attributeName="visibility" values="visible;hidden" keyTimes="0;1" begin="0.167s" dur="0.083s" repeatCount="indefinite" /><polygon points="256.000,396.000 225.146,407.230 208.729,435.665 214.431,468.000 239.583,489.105 272.417,489.105 297.569,468.000 303.271,435.665 286.854,407.230" stroke="#916df7" fill="none" stroke-width="1.8" opacity="1.0" /></g>
    <g visibility="hidden"><animate attributeName="visibility" values="visible;hidden" keyTimes="0;1" begin="0.250s" dur="0.083s" repeatCount="indefinite" /><polygon points="288.000,348.000 256.000,356.574 232.574,380.000 224.000,412.000 232.574,444.000 256.000,467.426 288.000,476.000 320.000,467.426 343.426,444.000 352.000,412.000 343.426,380.000 320.000,356.574" stroke="#916df7" fill="none" stroke-width="1.8" opacity="1.0" /></g>
    <g visibility="hidden"><animate attributeName="visibility" values="visible;hidden" keyTimes="0;1" begin="0.333s" dur="0.083s" repeatCount="indefinite" /><polygon points="320.000,300.000 287.461,306.916 260.548,326.470 243.915,355.279 240.438,388.362 250.718,420.000 272.977,444.721 303.367,458.252 336.633,458.252 367.023,444.721 389.282,420.000 399.562,388.362 396.085,355.279 379.452,326.470 352.539,306.916" stroke="#916df7" fill="none" stroke-width="1.8" opacity="1.0" /></g>
    <g visibility="hidden"><animate attributeName="visibility" values="visible;hidden" keyTimes="0;1" begin="0.417s" dur="0.083s" repeatCount="indefinite" /><polygon points="352.000,252.000 319.166,257.790 290.292,274.460 268.862,300.000 257.458,331.330 257.458,364.670 268.862,396.000 290.292,421.540 319.166,438.210 352.000,444.000 384.834,438.210 413.708,421.540 435.138,396.000 446.542,364.670 446.542,331.330 435.138,300.000 413.708,274.460 384.834,257.790" stroke="#916df7" fill="none" stroke-width="1.8" opacity="1.0" /></g>
    <g visibility="hidden"><animate attributeName="visibility" values="visible;hidden" keyTimes="0;1" begin="0.500s" dur="0.083s" repeatCount="indefinite" /><polygon points="384.000,204.000 350.987,208.976 320.908,223.461 296.435,246.169 279.742,275.082 272.313,307.630 274.808,340.922 287.005,372.000 307.821,398.102 335.405,416.909 367.307,426.749 400.693,426.749 432.595,416.909 460.179,398.102 480.995,372.000 493.192,340.922 495.687,307.630 488.258,275.082 471.565,246.169 447.092,223.461 417.013,208.976" stroke="#916df7" fill="none" stroke-width="1.8" opacity="1.0" /></g>
    <g visibility="hidden"><animate attributeName="visibility" values="visible;hidden" keyTimes="0;1" begin="0.583s" dur="0.083s" repeatCount="indefinite" /><polygon points="416.000,156.000 382.871,160.361 352.000,173.149 325.490,193.490 305.149,220.000 292.361,250.871 288.000,284.000 292.361,317.129 305.149,348.000 325.490,374.510 352.000,394.851 382.871,407.639 416.000,412.000 449.129,407.639 480.000,394.851 506.510,374.510 526.851,348.000 539.639,317.129 544.000,284.000 539.639,250.871 526.851,220.000 506.510,193.490 480.000,173.149 449.129,160.361" stroke="#916df7" fill="none" stroke-width="1.8" opacity="1.0" /></g>
    <g visibility="hidden"><animate attributeName="visibility" values="visible;hidden" keyTimes="0;1" begin="0.667s" dur="0.083s" repeatCount="indefinite" /><polygon points="448.000,108.000 414.791,111.882 383.373,123.317 355.439,141.690 332.494,166.009 315.777,194.965 306.188,226.995 304.244,260.373 310.050,293.300 323.292,324.000 343.258,350.819 368.871,372.310 398.749,387.316 431.283,395.026 464.717,395.026 497.251,387.316 527.129,372.310 552.742,350.819 572.708,324.000 585.950,293.300 591.756,260.373 589.812,226.995 580.223,194.965 563.506,166.009 540.561,141.690 512.627,123.317 481.209,111.882" stroke="#916df7" fill="none" stroke-width="1.8" opacity="1.0" /></g>
    <g visibility="hidden"><animate attributeName="visibility" values="visible;hidden" keyTimes="0;1" begin="0.750s" dur="0.083s" repeatCount="indefinite" /><polygon points="480.000,60.000 446.734,63.496 414.922,73.833 385.954,90.557 361.097,112.939 341.436,140.000 327.831,170.557 320.876,203.275 320.876,236.725 327.831,269.443 341.436,300.000 361.097,327.061 385.954,349.443 414.922,366.167 446.734,376.504 480.000,380.000 513.266,376.504 545.078,366.167 574.046,349.443 598.903,327.061 618.564,300.000 632.169,269.443 639.124,236.725 639.124,203.275 632.169,170.557 618.564,140.000 598.903,112.939 574.046,90.557 545.078,73.833 513.266,63.496" stroke="#916df7" fill="none" stroke-width="1.8" opacity="1.0" /></g>
  </g>
  <g id="shape_Y">
    <g visibility="hidden"><animate attributeName="visibility" values="visible;hidden" keyTimes="0;1" begin="0.000s" dur="0.083s" repeatCount="indefinite" /><circle cx="192.000" cy="508.000" r="4.0" stroke="#916df7" fill="#2563eb" opacity="1.0" /></g>
    <g visibility="hidden"><animate attributeName="visibility" values="visible;hidden" keyTimes="0;1" begin="0.083s" dur="0.083s" repeatCount="indefinite" /><circle cx="224.000" cy="476.000" r="4.0" stroke="#916df7" fill="#2563eb" opacity="1.0" /></g>
    <g visibility="hidden"><animate attributeName="visibility" values="visible;hidden" keyTimes="0;1" begin="0.167s" dur="0.083s" repeatCount="indefinite" /><circle cx="256.000" cy="444.000" r="4.0" stroke="#916df7" fill="#2563eb" opacity="1.0" /></g>
    <g visibility="hidden"><animate attributeName="visibility" values="visible;hidden" keyTimes="0;1" begin="0.250s" dur="0.083s" repeatCount="indefinite" /><circle cx="288.000" cy="412.000" r="4.0" stroke="#916df7" fill="#2563eb" opacity="1.0" /></g>
    <g visibility="hidden"><animate attributeName="visibility" values="visible;hidden" keyTimes="0;1" begin="0.333s" dur="0.083s" repeatCount="indefinite" /><circle cx="320.000" cy="380.000" r="4.0" stroke="#916df7" fill="#2563eb" opacity="1.0" /></g>
    <g visibility="hidden"><animate attributeName="visibility" values="visible;hidden" keyTimes="0;1" begin="0.417s" dur="0.083s" repeatCount="indefinite" /><circle cx="352.000" cy="348.000" r="4.0" stroke="#916df7" fill="#2563eb" opacity="1.0" /></g>
    <g visibility="hidden"><animate attributeName="visibility" values="visible;hidden" keyTimes="0;1" begin="0.500s" dur="0.083s" repeatCount="indefinite" /><circle cx="384.000" cy="316.000" r="4.0" stroke="#916df7" fill="#2563eb" opacity="1.0" /></g>
    <g visibility="hidden"><animate attributeName="visibility" values="visible;hidden" keyTimes="0;1" begin="0.583s" dur="0.083s" repeatCount="indefinite" /><circle cx="416.000" cy="284.000" r="4.0" stroke="#916df7" fill="#2563eb" opacity="1.0" /></g>
    <g visibility="hidden"><animate attributeName="visibility" values="visible;hidden" keyTimes="0;1" begin="0.667s" dur="0.083s" repeatCount="indefinite" /><circle cx="448.000" cy="252.000" r="4.0" stroke="#916df7" fill="#2563eb" opacity="1.0" /></g>
    <g visibility="hidden"><animate attributeName="visibility" values="visible;hidden" keyTimes="0;1" begin="0.750s" dur="0.083s" repeatCount="indefinite" /><circle cx="480.000" cy="220.000" r="4.0" stroke="#916df7" fill="#2563eb" opacity="1.0" /></g>
  </g>
</svg>