<svg xmlns="http://www.w3.org/2000/svg" width="800" height="600" viewBox="0 0 800 600">
  <rect width="100%" height="100%" fill="#000000" />
  <!-- O (point) -->
  <circle cx="400.000" cy="252.000" r="4.0" stroke="#916df7" fill="#2563eb" opacity="1.0" />
  <!-- P1 (point) -->
  <circle cx="400.000" cy="386.400" r="4.0" stroke="#916df7" fill="#2563eb" opacity="1.0" />
  <!-- P2 (point) -->
  <circle cx="515.200" cy="252.000" r="4.0" stroke="#916df7" fill="#2563eb" opacity="1.0" />
  <!-- P3 (point) -->
  <circle cx="400.000" cy="252.000" r="4.0" stroke="#916df7" fill="#2563eb" opacity="1.0" />
  <!-- Seed (triangle) -->
  <polygon points="400.000,386.400 515.200,252.000 400.000,252.000" stroke="#916df7" fill="none" stroke-width="1.8" opacity="1.0" />
  <!-- Seed (triangle) -->
  <polygon points="400.000,117.600 515.200,252.000 400.000,252.000" stroke="#916df7" fill="none" stroke-width="1.8" opacity="1.0" />
  <!-- Seed (triangle) -->
  <polygon points="283.606,184.800 457.600,152.234 400.000,252.000" stroke="#916df7" fill="none" stroke-width="1.8" opacity="1.0" />
  <!-- Seed (triangle) -->
  <polygon points="400.000,386.400 284.800,252.000 400.000,252.000" stroke="#916df7" fill="none" stroke-width="1.8" opacity="1.0" />
  <!-- Seed (triangle) -->
  <polygon points="400.000,117.600 515.200,252.000 400.000,252.000" stroke="#916df7" fill="none" stroke-width="1.8" opacity="1.0" />
  <!-- Seed (triangle) -->
  <polygon points="516.394,319.200 342.400,351.766 400.000,252.000" stroke="#916df7" fill="none" stroke-width="1.8" opacity="1.0" />
  <!-- Seed (triangle) -->
  <polygon points="400.000,386.400 284.800,252.000 400.000,252.000" stroke="#916df7" fill="none" stroke-width="1.8" opacity="1.0" />
  <!-- Hex (regular_poly) -->
  <polygon points="400.000,60.000 233.723,156.000 233.723,348.000 400.000,444.000 566.277,348.000 566.277,156.000" stroke="#916df7" fill="none" stroke-width="1.8" opacity="1.0" />
  <!-- HexCC (circle) -->
  <circle cx="400.000" cy="252.000" r="192.000" stroke="#916df7" fill="none" stroke-width="1.8" opacity="1.0" />
  <!-- Hub (circle) -->
  <circle cx="400.000" cy="252.000" r="34.560" stroke="#916df7" fill="none" stroke-width="1.8" opacity="1.0" />
  <!-- Hex (regular_poly) -->
  <polygon points="233.723,156.000 233.723,348.000 400.000,444.000 566.277,348.000 566.277,156.000 400.000,60.000" stroke="#916df7" fill="none" stroke-width="1.8" opacity="1.0" />
  <!-- Hex (regular_poly) -->
  <polygon points="233.723,348.000 400.000,444.000 566.277,348.000 566.277,156.000 400.000,60.000 233.723,156.000" stroke="#916df7" fill="none" stroke-width="1.8" opacity="1.0" />
  <!-- Hex (regular_poly) -->
  <polygon points="400.000,444.000 566.277,348.000 566.277,156.000 400.000,60.000 233.723,156.000 233.723,348.000" stroke="#916df7" fill="none" stroke-width="1.8" opacity="1.0" />
  <!-- Hex (regular_poly) -->
  <polygon points="566.277,348.000 566.277,156.000 400.000,60.000 233.723,156.000 233.723,348.000 400.000,444.000" stroke="#916df7" fill="none" stroke-width="1.8" opacity="1.0" />
  <!-- Hex (regular_poly) -->
  <polygon points="566.277,156.000 400.000,60.000 233.723,156.000 233.723,348.000 400.000,444.000 566.277,348.000" stroke="#916df7" fill="none" stroke-width="1.8" opacity="1.0" />
  <!-- Hex (regular_poly) -->
  <polygon points="400.000,60.000 233.723,156.000 233.723,348.000 400.000,444.000 566.277,348.000 566.277,156.000" stroke="#916df7" fill="none" stroke-width="1.8" opacity="1.0" />
  <!-- Q1a (point) -->
  <circle cx="304.000" cy="540.000" r="4.0" stroke="#916df7" fill="#2563eb" opacity="1.0" />
  <!-- Q2a (point) -->
  <circle cx="304.000" cy="386.400" r="4.0" stroke="#916df7" fill="#2563eb" opacity="1.0" />
  <!-- L (line) -->
  <line x1="304.000" y1="0.000" x2="304.000" y2="600.000" stroke="#916df7" fill="none" stroke-width="1.8" opacity="1.0" />
  <!-- L1 (line) -->
  <line x1="304.000" y1="0.000" x2="304.000" y2="600.000" stroke="#916df7" fill="none" stroke-width="1.8" opacity="1.0" />
  <!-- L1 (line) -->
  <line x1="304.000" y1="0.000" x2="304.000" y2="600.000" stroke="#916df7" fill="none" stroke-width="1.8" opacity="1.0" />
  <!-- Q1 (point) -->
  <circle cx="457.600" cy="386.400" r="4.0" stroke="#916df7" fill="#2563eb" opacity="1.0" />
  <!-- Q2 (point) -->
  <circle cx="457.600" cy="117.600" r="4.0" stroke="#916df7" fill="#2563eb" opacity="1.0" />
  <!-- ParallelAx (line) -->
  <line x1="457.600" y1="0.000" x2="457.600" y2="600.000" stroke="#916df7" fill="none" stroke-width="1.8" opacity="1.0" />
  <text x="371.600" y="286.800" font="13px 'Inter', 'Segoe UI', sans-serif" fill="#3b82f6" font-size="13" font-family="Inter, Segoe UI, sans-serif">R6</text>
  <text x="410.000" y="242.000" font="13px 'Inter', 'Segoe UI', sans-serif" fill="#3b82f6" font-size="13" font-family="Inter, Segoe UI, sans-serif">Hexagonal frame</text>
  <text x="410.000" y="242.000" font="13px 'Inter', 'Segoe UI', sans-serif" fill="#3b82f6" font-size="13" font-family="Inter, Segoe UI, sans-serif">Circumcircle</text>
  <text x="410.000" y="242.000" font="13px 'Inter', 'Segoe UI', sans-serif" fill="#3b82f6" font-size="13" font-family="Inter, Segoe UI, sans-serif">Hub</text>
  <text x="408.000" y="244.000" font="13px 'Inter', 'Segoe UI', sans-serif" fill="#3b82f6" font-size="13" font-family="Inter, Segoe UI, sans-serif">O</text>
  <text x="408.000" y="378.400" font="13px 'Inter', 'Segoe UI', sans-serif" fill="#3b82f6" font-size="13" font-family="Inter, Segoe UI, sans-serif">P1</text>
  <text x="523.200" y="244.000" font="13px 'Inter', 'Segoe UI', sans-serif" fill="#3b82f6" font-size="13" font-family="Inter, Segoe UI, sans-serif">P2</text>
  <text x="408.000" y="244.000" font="13px 'Inter', 'Segoe UI', sans-serif" fill="#3b82f6" font-size="13" font-family="Inter, Segoe UI, sans-serif">P3</text>
  <text x="312.000" y="532.000" font="13px 'Inter', 'Segoe UI', sans-serif" fill="#3b82f6" font-size="13" font-family="Inter, Segoe UI, sans-serif">Q1a</text>
  <text x="312.000" y="378.400" font="13px 'Inter', 'Segoe UI', sans-serif" fill="#3b82f6" font-size="13" font-family="Inter, Segoe UI, sans-serif">Q2a</text>
  <text x="465.600" y="378.400" font="13px 'Inter', 'Segoe UI', sans-serif" fill="#3b82f6" font-size="13" font-family="Inter, Segoe UI, sans-serif">Q1</text>
  <text x="465.600" y="109.600" font="13px 'Inter', 'Segoe UI', sans-serif" fill="#3b82f6" font-size="13" font-family="Inter, Segoe UI, sans-serif">Q2</text>
</svg>